<svg width="18" height="18" viewBox="0 0 18 18" fill="none" xmlns="http://www.w3.org/2000/svg">
<path fill-rule="evenodd" clip-rule="evenodd" d="M1.85175 5.22675C1.904 5.17436 1.96607 5.1328 2.03441 5.10445C2.10275 5.07609 2.17601 5.06149 2.25 5.06149C2.32399 5.06149 2.39725 5.07609 2.46559 5.10445C2.53393 5.1328 2.596 5.17436 2.64825 5.22675L9 11.5796L15.3518 5.22675C15.404 5.17445 15.4661 5.13296 15.5345 5.10466C15.6028 5.07636 15.676 5.06179 15.75 5.06179C15.824 5.06179 15.8972 5.07636 15.9655 5.10466C16.0339 5.13296 16.096 5.17445 16.1483 5.22675C16.2005 5.27905 16.242 5.34113 16.2703 5.40947C16.2986 5.4778 16.3132 5.55104 16.3132 5.625C16.3132 5.69896 16.2986 5.7722 16.2703 5.84053C16.242 5.90886 16.2005 5.97095 16.1483 6.02325L9.39825 12.7732C9.346 12.8256 9.28393 12.8672 9.21559 12.8955C9.14725 12.9239 9.07399 12.9385 9 12.9385C8.92601 12.9385 8.85275 12.9239 8.78441 12.8955C8.71607 12.8672 8.654 12.8256 8.60175 12.7732L1.85175 6.02325C1.79937 5.971 1.75781 5.90892 1.72945 5.84059C1.70109 5.77225 1.68649 5.69899 1.68649 5.625C1.68649 5.55101 1.70109 5.47775 1.72945 5.40941C1.75781 5.34107 1.79937 5.279 1.85175 5.22675Z" fill="black"/>
</svg>
