<svg width="14" height="14" viewBox="0 0 14 14" fill="none" xmlns="http://www.w3.org/2000/svg">
<path d="M7.0137 13C5.33209 13 3.90929 12.418 2.74531 11.2541C1.58177 10.0905 1 8.668 1 6.98643C1 5.44963 1.50114 4.11595 2.50342 2.9854C3.50571 1.85529 4.7864 1.19558 6.34551 1.00626C6.62392 0.972855 6.84108 1.07308 6.99699 1.30694C7.1529 1.5408 7.14733 1.7858 6.98029 2.04193C6.79097 2.33148 6.64887 2.63772 6.55398 2.96068C6.45955 3.28363 6.41233 3.62328 6.41233 3.97964C6.41233 4.9819 6.76313 5.83383 7.46472 6.53541C8.16632 7.23699 9.01826 7.58778 10.0205 7.58778C10.3658 7.58778 10.7083 7.53767 11.0482 7.43745C11.3877 7.33722 11.691 7.19802 11.9583 7.01984C12.1922 6.86393 12.4316 6.85547 12.6766 6.99445C12.9216 7.13387 13.0274 7.35392 12.994 7.6546C12.8381 9.1914 12.1839 10.4665 11.0315 11.4799C9.87867 12.4933 8.53939 13 7.0137 13Z" fill="#15001C"/>
</svg>
