<svg width="48" height="48" viewBox="0 0 48 48" fill="none" xmlns="http://www.w3.org/2000/svg">
<g clip-path="url(#clip0_265_3892)">
<path d="M24 4C12.9531 4 4 12.9531 4 24C4 35.0469 12.9531 44 24 44C35.0469 44 44 35.0469 44 24C44 12.9531 35.0469 4 24 4ZM24 8C32.8203 8 40 15.1797 40 24C40 24.9375 39.9062 25.8594 39.75 26.75C39.2578 26.6406 38.5312 26.5078 37.6875 26.5C37.0625 26.4922 36.2812 26.5938 35.625 26.6875C35.8516 25.9922 36 25.2266 36 24.4375C36 22.5156 35.0625 20.7266 33.5625 19.25C33.9766 17.7109 34.3828 15.0703 33.3125 14C30.1484 14 28.3984 16.2578 28.3125 16.375C27.3359 16.1406 26.3281 16 25.25 16C23.8672 16 22.5469 16.25 21.3125 16.625L21.6875 16.3125C21.6875 16.3125 19.9297 13.875 16.6875 13.875C15.5547 15.0156 16.0703 17.9062 16.5 19.375C14.9688 20.8359 14 22.5625 14 24.4375C14 25.0938 14.1562 25.7188 14.3125 26.3125C13.7578 26.25 11.7578 26.0625 10.9375 26.0625C10.2109 26.0625 9.08594 26.2344 8.1875 26.4375C8.0625 25.6406 8 24.8281 8 24C8 15.1797 15.1797 8 24 8ZM10.9375 26.5625C11.7266 26.5625 14.125 26.8438 14.4375 26.875C14.4766 26.9844 14.5156 27.0859 14.5625 27.1875C13.7031 27.1094 12.0391 26.9922 10.9375 27.125C10.2031 27.2109 9.26563 27.4766 8.4375 27.6875C8.375 27.4375 8.29688 27.1953 8.25 26.9375C9.125 26.75 10.2734 26.5625 10.9375 26.5625ZM37.6875 27C38.4844 27.0078 39.2109 27.1406 39.6875 27.25C39.6641 27.3828 39.5938 27.4922 39.5625 27.625C39.0547 27.5078 38.2188 27.3359 37.25 27.3125C36.7812 27.3047 36.0312 27.3281 35.375 27.375C35.4062 27.3125 35.4141 27.25 35.4375 27.1875C36.1172 27.0938 36.9844 26.9922 37.6875 27ZM12.1875 27.5625C13.3125 27.5703 14.3672 27.6484 14.8125 27.6875C15.8594 29.6406 17.9766 31.0859 21.25 31.6875C20.4453 32.1328 19.7266 32.7578 19.1875 33.5C18.7188 33.5391 18.2266 33.5625 17.75 33.5625C16.3594 33.5625 15.4922 32.3203 14.75 31.25C14 30.1797 13.0781 30.0625 12.5625 30C12.0391 29.9375 11.8594 30.2344 12.125 30.4375C13.6484 31.6094 14.1953 33 14.8125 34.25C15.3672 35.375 16.5312 36 17.8125 36H18.0625C18.0234 36.2188 18 36.4219 18 36.625V38.8125C13.3828 36.9453 9.86719 33 8.5625 28.125C9.38281 27.9219 10.3047 27.7109 11 27.625C11.3203 27.5859 11.7266 27.5547 12.1875 27.5625ZM37.25 27.8125C38.1484 27.8359 38.9453 28.0078 39.4375 28.125C38.3359 32.2656 35.6172 35.7109 32 37.8125V36.625C32 34.9219 30.6562 32.7344 28.75 31.6875C31.9141 31.1094 33.9766 29.7266 35.0625 27.875C35.8203 27.8203 36.7109 27.7969 37.25 27.8125ZM25 36C25.5469 36 26 36.4531 26 37V39.875C25.3438 39.9609 24.6797 40 24 40V37C24 36.4531 24.4531 36 25 36ZM21 38C21.5469 38 22 38.4531 22 39V39.875C21.3281 39.7891 20.6484 39.6641 20 39.5V39C20 38.4531 20.4531 38 21 38ZM29 38C29.4844 38 29.9062 38.3516 30 38.8125C29.3516 39.0781 28.6875 39.3203 28 39.5V39C28 38.4531 28.4531 38 29 38Z" fill="#6174C1"/>
</g>
<defs>
<clipPath id="clip0_265_3892">
<rect width="48" height="48" fill="white"/>
</clipPath>
</defs>
</svg>
