<svg width="48" height="49" viewBox="0 0 48 49" fill="none" xmlns="http://www.w3.org/2000/svg">
<g clip-path="url(#clip0_747_706)">
<path fill-rule="evenodd" clip-rule="evenodd" d="M48 0.5H0V48.5H48V0.5ZM25.6 26.1C25.6 22.5654 28.4654 19.7 32 19.7H35.7334C38.9734 19.7 41.6 22.3266 41.6 25.5667V26.1H38.4V25.5667C38.4 24.0939 37.2061 22.9 35.7334 22.9H32C30.2327 22.9 28.8 24.3327 28.8 26.1C28.8 27.8673 30.2327 29.3 32 29.3H35.2C38.7347 29.3 41.6 32.1654 41.6 35.7C41.6 39.2347 38.7347 42.1 35.2 42.1H32C28.4654 42.1 25.6 39.2347 25.6 35.7H28.8C28.8 37.4674 30.2327 38.9 32 38.9H35.2C36.9674 38.9 38.4 37.4674 38.4 35.7C38.4 33.9326 36.9674 32.5 35.2 32.5H32C28.4654 32.5 25.6 29.6346 25.6 26.1ZM19.2 19.7V35.7C19.2 37.4674 17.7673 38.9 16 38.9C14.2327 38.9 12.8 37.4674 12.8 35.7H9.6C9.6 39.2347 12.4654 42.1 16 42.1C19.5346 42.1 22.4 39.2347 22.4 35.7V19.7H19.2Z" fill="#6174C1"/>
</g>
<defs>
<clipPath id="clip0_747_706">
<rect width="48" height="48" fill="white" transform="translate(0 0.5)"/>
</clipPath>
</defs>
</svg>
