<svg width="49" height="48" viewBox="0 0 49 48" fill="none" xmlns="http://www.w3.org/2000/svg">
<g clip-path="url(#clip0_347_1302)">
<path fill-rule="evenodd" clip-rule="evenodd" d="M48.5 0H0.5V48H48.5V0ZM26.1 25.6C26.1 22.0654 28.9654 19.2 32.5 19.2H36.2334C39.4734 19.2 42.1 21.8266 42.1 25.0667V25.6H38.9V25.0667C38.9 23.5939 37.7061 22.4 36.2334 22.4H32.5C30.7327 22.4 29.3 23.8327 29.3 25.6C29.3 27.3673 30.7327 28.8 32.5 28.8H35.7C39.2347 28.8 42.1 31.6654 42.1 35.2C42.1 38.7347 39.2347 41.6 35.7 41.6H32.5C28.9654 41.6 26.1 38.7347 26.1 35.2H29.3C29.3 36.9674 30.7327 38.4 32.5 38.4H35.7C37.4674 38.4 38.9 36.9674 38.9 35.2C38.9 33.4326 37.4674 32 35.7 32H32.5C28.9654 32 26.1 29.1346 26.1 25.6ZM19.7 19.2V35.2C19.7 36.9674 18.2673 38.4 16.5 38.4C14.7327 38.4 13.3 36.9674 13.3 35.2H10.1C10.1 38.7347 12.9654 41.6 16.5 41.6C20.0346 41.6 22.9 38.7347 22.9 35.2V19.2H19.7Z" fill="#CD98E7"/>
</g>
<defs>
<clipPath id="clip0_347_1302">
<rect width="48" height="48" fill="white" transform="translate(0.5)"/>
</clipPath>
</defs>
</svg>
