<svg width="12" height="12" viewBox="0 0 12 12" fill="none" xmlns="http://www.w3.org/2000/svg">
<g clip-path="url(#clip0_430_4049)">
<path fill-rule="evenodd" clip-rule="evenodd" d="M-0.00463867 6.24641C-0.00463867 2.79338 2.7946 -0.00585938 6.24764 -0.00585938V-0.00585938C9.70067 -0.00585938 12.4999 2.79338 12.4999 6.24641V6.24641C12.4999 9.69945 9.70067 12.4987 6.24764 12.4987V12.4987C2.7946 12.4987 -0.00463867 9.69945 -0.00463867 6.24641V6.24641Z" fill="black"/>
<path fill-rule="evenodd" clip-rule="evenodd" d="M5.92523 3.6001C6.16896 3.61671 6.23725 3.77123 6.1301 4.06367C5.99754 4.1859 5.88697 4.16015 5.79841 3.98641C5.75773 3.80562 5.79999 3.67685 5.92523 3.6001Z" fill="#F6F6F6"/>
<path fill-rule="evenodd" clip-rule="evenodd" d="M7.36896 3.75442C7.55177 3.72581 7.64609 3.82882 7.65186 4.06347C7.57181 4.28269 7.45475 4.32562 7.30067 4.19224C7.21991 4.01449 7.24266 3.86854 7.36896 3.75442Z" fill="#F7F7F7"/>
<path fill-rule="evenodd" clip-rule="evenodd" d="M4.46189 3.75464C4.68032 3.75502 4.76162 3.8924 4.70578 4.16671C4.58803 4.33578 4.47097 4.33578 4.35459 4.16671C4.29652 3.98545 4.33228 3.8481 4.46189 3.75464Z" fill="#F8F8F8"/>
<path fill-rule="evenodd" clip-rule="evenodd" d="M3.09622 4.24389C3.21367 4.21093 3.30797 4.25386 3.37912 4.37266C3.42129 4.65192 3.33349 4.77639 3.11573 4.7461C2.96822 4.58905 2.96173 4.42165 3.09622 4.24389Z" fill="#F9F9F9"/>
<path fill-rule="evenodd" clip-rule="evenodd" d="M8.71534 4.2438C8.92004 4.20089 9.01436 4.31249 8.99824 4.57861C8.93967 4.73524 8.84538 4.79105 8.71534 4.74601C8.55941 4.57412 8.55941 4.40672 8.71534 4.2438Z" fill="#F8F8F8"/>
<path fill-rule="evenodd" clip-rule="evenodd" d="M5.96436 4.70752C5.99451 4.72632 6.01076 4.76065 6.01314 4.81054C6.03975 5.13295 6.08529 5.45058 6.14972 5.76345C6.22618 6.07644 6.30748 6.38549 6.3936 6.6906C6.12045 6.6906 5.8473 6.6906 5.57415 6.6906C5.57102 6.64684 5.57426 6.60391 5.5839 6.56183C5.79571 5.97324 5.92253 5.35514 5.96436 4.70752Z" fill="#FBFBFB"/>
<path fill-rule="evenodd" clip-rule="evenodd" d="M4.65709 4.93921C4.88225 5.47346 5.09361 6.02287 5.2912 6.58748C5.30083 6.62957 5.30407 6.6725 5.30095 6.71625C5.05976 6.75283 4.81913 6.79576 4.57905 6.84503C4.56067 6.84224 4.54442 6.83367 4.53027 6.81927C4.55819 6.54491 4.59072 6.27022 4.62783 5.99513C4.65169 5.64387 4.66144 5.29189 4.65709 4.93921Z" fill="#FBFBFB"/>
<path fill-rule="evenodd" clip-rule="evenodd" d="M7.25207 4.99072C7.28788 5.32535 7.31714 5.66876 7.33987 6.02089C7.36444 6.29031 7.40022 6.55643 7.44718 6.81928C7.19323 6.79563 6.93959 6.76558 6.68626 6.72914C6.67535 6.71046 6.66886 6.68901 6.66675 6.66475C6.86174 6.10745 7.05685 5.54944 7.25207 4.99072Z" fill="#FAFAFA"/>
<path fill-rule="evenodd" clip-rule="evenodd" d="M3.46704 5.24829C3.49664 5.24857 3.51941 5.26573 3.53533 5.2998C3.81424 5.80876 4.09065 6.31957 4.36454 6.83218C4.36171 6.85206 4.35521 6.86924 4.34503 6.88369C4.23446 6.9395 4.12391 6.99528 4.01334 7.05109C3.99426 7.03881 3.97801 7.02165 3.96457 6.99958C3.79268 6.41746 3.62683 5.83369 3.46704 5.24829Z" fill="#F9F9F9"/>
<path fill-rule="evenodd" clip-rule="evenodd" d="M8.48126 5.24829C8.50356 5.31443 8.5003 5.38311 8.4715 5.45433C8.31551 5.9682 8.15943 6.48329 8.00324 6.99958C7.98756 7.03317 7.96479 7.05034 7.93496 7.05109C7.82597 6.99196 7.7154 6.94045 7.60327 6.89657C7.61595 6.80282 7.64522 6.71698 7.69107 6.63902C7.95119 6.17132 8.21458 5.70775 8.48126 5.24829Z" fill="#F5F5F5"/>
<path fill-rule="evenodd" clip-rule="evenodd" d="M5.41792 6.87078C6.23531 6.8219 7.04177 6.92062 7.83727 7.16696C7.88561 7.21687 7.88887 7.27268 7.84702 7.33436C7.77793 7.44255 7.70964 7.54987 7.64216 7.65629C7.68725 7.82192 7.72627 7.98932 7.75922 8.1585C6.56256 7.91813 5.36589 7.91813 4.16923 8.1585C4.19424 7.98522 4.23327 7.81782 4.2863 7.65629C4.22546 7.55016 4.15717 7.45144 4.08143 7.36012C4.05103 7.30168 4.0478 7.24159 4.07168 7.17984C4.51598 7.02379 4.96473 6.92077 5.41792 6.87078Z" fill="#FBFBFB"/>
<path fill-rule="evenodd" clip-rule="evenodd" d="M5.35948 7.12824C5.83334 7.05476 5.89839 7.23934 5.55459 7.68196C5.52858 7.69913 5.50255 7.69913 5.47655 7.68196C5.36196 7.60706 5.28066 7.49117 5.23266 7.33427C5.21965 7.29134 5.21965 7.24844 5.23266 7.2055C5.27492 7.1738 5.3172 7.14804 5.35948 7.12824Z" fill="black"/>
<path fill-rule="evenodd" clip-rule="evenodd" d="M6.15953 7.12831C6.31575 7.12404 6.47184 7.12831 6.62779 7.14119C6.67444 7.22566 6.6777 7.3158 6.63754 7.41161C6.53125 7.69506 6.38817 7.73799 6.2083 7.54038C6.14407 7.41112 6.1278 7.27375 6.15953 7.12831Z" fill="black"/>
<path fill-rule="evenodd" clip-rule="evenodd" d="M4.73527 7.23145C4.85206 7.19012 4.91059 7.24593 4.91087 7.39886C4.87834 7.75488 4.76128 7.81499 4.55967 7.57914C4.49895 7.51632 4.45344 7.43906 4.4231 7.34735C4.42592 7.32747 4.43242 7.31029 4.44261 7.29584C4.54369 7.28039 4.64125 7.25891 4.73527 7.23145Z" fill="black"/>
<path fill-rule="evenodd" clip-rule="evenodd" d="M7.05685 7.23145C7.17877 7.26601 7.30235 7.28746 7.42755 7.29583C7.45506 7.30531 7.47457 7.32676 7.48608 7.36022C7.41733 7.50678 7.32627 7.62268 7.21293 7.7079C7.12279 7.74751 7.061 7.70888 7.02758 7.59201C6.9996 7.49141 6.9931 7.38839 7.00807 7.28295C7.02748 7.26838 7.04373 7.2512 7.05685 7.23145Z" fill="black"/>
<path fill-rule="evenodd" clip-rule="evenodd" d="M5.28147 8.18431C5.82801 8.17957 6.37431 8.19244 6.92038 8.22294C7.17016 8.2404 7.41728 8.28331 7.66179 8.35171C7.77618 8.39392 7.78268 8.44543 7.6813 8.50623C7.38021 8.60201 7.07455 8.65352 6.76429 8.66076C6.09382 8.71984 5.42394 8.71126 4.75468 8.63501C4.58298 8.62172 4.4139 8.58736 4.2474 8.53199C4.18605 8.50832 4.16654 8.46111 4.18886 8.39034C4.27674 8.34416 4.3678 8.31413 4.46202 8.3002C4.73763 8.25817 5.01078 8.21954 5.28147 8.18431Z" fill="#F9F9F9"/>
</g>
<defs>
<clipPath id="clip0_430_4049">
<rect width="12" height="12" rx="6" fill="white"/>
</clipPath>
</defs>
</svg>
