<svg width="14" height="14" viewBox="0 0 14 14" fill="none" xmlns="http://www.w3.org/2000/svg">
<g clip-path="url(#clip0_502_3979)">
<path d="M7 11.3184C7.01088 11.3184 7.02154 11.3224 7.03125 11.332C7.0409 11.3417 7.04581 11.3525 7.0459 11.3633V12.4541C7.0459 12.465 7.041 12.4766 7.03125 12.4863C7.02156 12.4959 7.01084 12.5 7 12.5C6.98916 12.5 6.97844 12.4959 6.96875 12.4863C6.959 12.4766 6.9541 12.465 6.9541 12.4541V11.3633C6.95419 11.3525 6.9591 11.3417 6.96875 11.332C6.97846 11.3224 6.98912 11.3184 7 11.3184ZM10.1152 10.0537L10.6982 10.6367C10.7019 10.6403 10.707 10.6477 10.707 10.6611L10.6934 10.6934L10.6895 10.6982C10.6859 10.7019 10.6785 10.707 10.665 10.707C10.6513 10.707 10.6399 10.7014 10.6318 10.6934L10.0537 10.1152L10.0488 10.1113L10.04 10.0869L10.0537 10.0537L10.0586 10.0488C10.0622 10.0452 10.069 10.0401 10.082 10.04C10.0958 10.04 10.1072 10.0457 10.1152 10.0537ZM3.94629 10.0537L3.95117 10.0586C3.95476 10.0622 3.95986 10.069 3.95996 10.082L3.94629 10.1152L3.36328 10.6982C3.36164 10.6999 3.35646 10.7051 3.3418 10.7051C3.32558 10.705 3.3111 10.6985 3.30176 10.6895C3.29811 10.6859 3.29303 10.6785 3.29297 10.665L3.30664 10.6318L3.88477 10.0537L3.88867 10.0488C3.89222 10.0452 3.89962 10.0401 3.91309 10.04L3.94629 10.0537ZM7 4.77246C8.22931 4.77246 9.22754 5.77069 9.22754 7C9.22754 8.22931 8.22931 9.22754 7 9.22754C5.77069 9.22754 4.77246 8.22931 4.77246 7C4.77246 5.77069 5.77069 4.77246 7 4.77246ZM1.5459 6.9541H2.63672C2.64755 6.95419 2.65832 6.9591 2.66797 6.96875C2.67759 6.97846 2.68164 6.98912 2.68164 7C2.68164 7.01088 2.67759 7.02154 2.66797 7.03125C2.65832 7.0409 2.64755 7.04581 2.63672 7.0459H1.5459C1.53495 7.0459 1.52343 7.041 1.51367 7.03125C1.50411 7.02156 1.5 7.01084 1.5 7C1.5 6.98916 1.50411 6.97844 1.51367 6.96875C1.52343 6.959 1.53495 6.9541 1.5459 6.9541ZM11.3633 6.9541H12.4541C12.465 6.9541 12.4766 6.959 12.4863 6.96875C12.4959 6.97844 12.5 6.98916 12.5 7C12.5 7.01084 12.4959 7.02156 12.4863 7.03125C12.4766 7.041 12.465 7.0459 12.4541 7.0459H11.3633C11.3525 7.04581 11.3417 7.0409 11.332 7.03125C11.3224 7.02154 11.3184 7.01088 11.3184 7C11.3184 6.98912 11.3224 6.97846 11.332 6.96875C11.3417 6.9591 11.3525 6.95419 11.3633 6.9541ZM3.36816 3.30664L3.94629 3.88477L3.95117 3.88867C3.95263 3.8901 3.95711 3.89592 3.95703 3.91113C3.95691 3.9274 3.95048 3.94186 3.94141 3.95117C3.93778 3.95476 3.93098 3.95986 3.91797 3.95996L3.88477 3.94629L3.30176 3.36328L3.29297 3.33887L3.30664 3.30664L3.31055 3.30176C3.3141 3.29811 3.32146 3.29303 3.33496 3.29297L3.36816 3.30664ZM10.6934 3.30664L10.6982 3.31055C10.7019 3.3141 10.707 3.32146 10.707 3.33496L10.6934 3.36816L10.1152 3.94629L10.1113 3.95117C10.1099 3.95263 10.1041 3.95711 10.0889 3.95703C10.0726 3.95691 10.0581 3.95048 10.0488 3.94141C10.0452 3.93778 10.0401 3.93098 10.04 3.91797L10.0537 3.88477L10.6367 3.30176C10.6403 3.29811 10.6477 3.29297 10.6611 3.29297L10.6934 3.30664ZM7 1.5C7.01084 1.5 7.02156 1.50411 7.03125 1.51367C7.041 1.52343 7.0459 1.53495 7.0459 1.5459V2.63672C7.04581 2.64755 7.0409 2.65832 7.03125 2.66797C7.02154 2.67759 7.01088 2.68164 7 2.68164C6.98912 2.68164 6.97846 2.67759 6.96875 2.66797C6.9591 2.65832 6.95419 2.64755 6.9541 2.63672V1.5459C6.9541 1.53495 6.959 1.52343 6.96875 1.51367C6.97844 1.50411 6.98916 1.5 7 1.5Z" fill="#FFF200" stroke="#404040"/>
</g>
<defs>
<clipPath id="clip0_502_3979">
<rect width="14" height="14" fill="white"/>
</clipPath>
</defs>
</svg>
