<svg width="64" height="64" viewBox="0 0 64 64" fill="none" xmlns="http://www.w3.org/2000/svg">
<g clip-path="url(#clip0_431_1088)">
<path fill-rule="evenodd" clip-rule="evenodd" d="M-0.024292 -0.0319977C21.309 -0.0319977 42.6424 -0.0319977 63.9757 -0.0319977C63.9757 21.3013 63.9757 42.6347 63.9757 63.968C42.6424 63.968 21.309 63.968 -0.024292 63.968C-0.024292 42.6347 -0.024292 21.3013 -0.024292 -0.0319977Z" fill="#CD98E7"/>
<path fill-rule="evenodd" clip-rule="evenodd" d="M31.8304 19.104C32.436 19.1453 32.6057 19.5293 32.3395 20.256C32.01 20.5597 31.7353 20.4957 31.5152 20.064C31.4141 19.6147 31.5191 19.2947 31.8304 19.104Z" fill="#15001C"/>
<path fill-rule="evenodd" clip-rule="evenodd" d="M35.4182 19.488C35.8725 19.4169 36.1069 19.6729 36.1213 20.256C35.9223 20.8008 35.6314 20.9075 35.2485 20.576C35.0478 20.1343 35.1044 19.7716 35.4182 19.488Z" fill="#15001C"/>
<path fill-rule="evenodd" clip-rule="evenodd" d="M28.194 19.488C28.7368 19.489 28.9388 19.8303 28.8 20.512C28.5074 20.9322 28.2165 20.9322 27.9273 20.512C27.783 20.0616 27.8719 19.7203 28.194 19.488Z" fill="#15001C"/>
<path fill-rule="evenodd" clip-rule="evenodd" d="M24.8 20.704C25.0919 20.6221 25.3262 20.7288 25.503 21.024C25.6078 21.7179 25.3896 22.0273 24.8485 21.952C24.482 21.5617 24.4658 21.1457 24.8 20.704Z" fill="#15001C"/>
<path fill-rule="evenodd" clip-rule="evenodd" d="M38.7636 20.704C39.2723 20.5974 39.5067 20.8747 39.4667 21.536C39.3211 21.9252 39.0868 22.0639 38.7636 21.952C38.3761 21.5249 38.3761 21.1089 38.7636 20.704Z" fill="#15001C"/>
<path fill-rule="evenodd" clip-rule="evenodd" d="M31.9273 21.856C32.0022 21.9027 32.0426 21.988 32.0485 22.112C32.1146 22.9132 32.2278 23.7025 32.3879 24.48C32.5779 25.2578 32.7799 26.0258 32.9939 26.784C32.3151 26.784 31.6364 26.784 30.9576 26.784C30.9498 26.6753 30.9579 26.5686 30.9818 26.464C31.5082 25.0013 31.8233 23.4653 31.9273 21.856Z" fill="#15001C"/>
<path fill-rule="evenodd" clip-rule="evenodd" d="M28.6788 22.432C29.2383 23.7596 29.7636 25.1249 30.2546 26.528C30.2785 26.6326 30.2866 26.7393 30.2788 26.848C29.6794 26.9389 29.0815 27.0456 28.4849 27.168C28.4392 27.1611 28.3988 27.1398 28.3636 27.104C28.433 26.4222 28.5139 25.7396 28.6061 25.056C28.6654 24.1831 28.6896 23.3084 28.6788 22.432Z" fill="#15001C"/>
<path fill-rule="evenodd" clip-rule="evenodd" d="M35.1273 22.56C35.2162 23.3915 35.289 24.2449 35.3455 25.12C35.4065 25.7895 35.4954 26.4508 35.6121 27.104C34.981 27.0452 34.3507 26.9706 33.7212 26.88C33.6941 26.8336 33.678 26.7803 33.6727 26.72C34.1573 25.3351 34.6421 23.9484 35.1273 22.56Z" fill="#15001C"/>
<path fill-rule="evenodd" clip-rule="evenodd" d="M25.7212 23.2C25.7947 23.2007 25.8513 23.2433 25.8909 23.328C26.584 24.5928 27.2709 25.8621 27.9515 27.136C27.9445 27.1854 27.9283 27.2281 27.903 27.264C27.6282 27.4027 27.3535 27.5413 27.0788 27.68C27.0313 27.6495 26.991 27.6068 26.9576 27.552C26.5304 26.1054 26.1183 24.6547 25.7212 23.2Z" fill="#15001C"/>
<path fill-rule="evenodd" clip-rule="evenodd" d="M38.1818 23.2C38.2372 23.3643 38.2291 23.535 38.1576 23.712C37.7699 24.989 37.3821 26.269 36.9939 27.552C36.955 27.6355 36.8984 27.6781 36.8242 27.68C36.5534 27.5331 36.2786 27.4051 36 27.296C36.0315 27.063 36.1042 26.8497 36.2182 26.656C36.8646 25.4938 37.5191 24.3418 38.1818 23.2Z" fill="#15001C"/>
<path fill-rule="evenodd" clip-rule="evenodd" d="M30.5697 27.232C32.6009 27.1105 34.605 27.3558 36.5818 27.968C36.702 28.092 36.7101 28.2307 36.6061 28.384C36.4344 28.6529 36.2647 28.9196 36.097 29.184C36.209 29.5956 36.306 30.0116 36.3879 30.432C33.4142 29.8347 30.4404 29.8347 27.4667 30.432C27.5288 30.0014 27.6258 29.5854 27.7576 29.184C27.6064 28.9203 27.4367 28.6749 27.2485 28.448C27.1729 28.3028 27.1649 28.1535 27.2242 28C28.3283 27.6122 29.4435 27.3562 30.5697 27.232Z" fill="#15001C"/>
<path fill-rule="evenodd" clip-rule="evenodd" d="M30.4242 27.872C31.6018 27.6894 31.7634 28.1481 30.9091 29.248C30.8445 29.2907 30.7798 29.2907 30.7152 29.248C30.4304 29.0619 30.2284 28.7739 30.1091 28.384C30.0768 28.2773 30.0768 28.1707 30.1091 28.064C30.2141 27.9852 30.3192 27.9212 30.4242 27.872Z" fill="#CD98E7"/>
<path fill-rule="evenodd" clip-rule="evenodd" d="M32.4121 27.872C32.8004 27.8614 33.1882 27.872 33.5758 27.904C33.6917 28.1139 33.6998 28.3379 33.6 28.576C33.3359 29.2804 32.9803 29.3871 32.5333 28.896C32.3737 28.5748 32.3333 28.2334 32.4121 27.872Z" fill="#CD98E7"/>
<path fill-rule="evenodd" clip-rule="evenodd" d="M28.8727 28.128C29.1629 28.0253 29.3084 28.164 29.309 28.544C29.2282 29.4287 28.9373 29.5781 28.4363 28.992C28.2854 28.8359 28.1723 28.6439 28.0969 28.416C28.104 28.3666 28.1201 28.3239 28.1454 28.288C28.3966 28.2496 28.639 28.1962 28.8727 28.128Z" fill="#CD98E7"/>
<path fill-rule="evenodd" clip-rule="evenodd" d="M34.6424 28.128C34.9453 28.2139 35.2525 28.2672 35.5636 28.288C35.6319 28.3116 35.6804 28.3649 35.709 28.448C35.5382 28.8122 35.3119 29.1002 35.0302 29.312C34.8062 29.4104 34.6527 29.3144 34.5696 29.024C34.5001 28.774 34.484 28.518 34.5212 28.256C34.5694 28.2198 34.6098 28.1771 34.6424 28.128Z" fill="#CD98E7"/>
<path fill-rule="evenodd" clip-rule="evenodd" d="M30.2303 30.496C31.5884 30.4842 32.946 30.5162 34.303 30.592C34.9237 30.6354 35.5378 30.742 36.1454 30.912C36.4297 31.0169 36.4458 31.1449 36.1939 31.296C35.4457 31.534 34.6861 31.662 33.9151 31.68C32.249 31.8268 30.5843 31.8055 28.9212 31.616C28.4945 31.583 28.0743 31.4976 27.6606 31.36C27.5081 31.3012 27.4597 31.1839 27.5151 31.008C27.7335 30.8932 27.9598 30.8186 28.1939 30.784C28.8788 30.6795 29.5576 30.5835 30.2303 30.496Z" fill="#15001C"/>
<path fill-rule="evenodd" clip-rule="evenodd" d="M9.57581 35.168C9.88286 35.168 10.19 35.168 10.497 35.168C10.497 37.1733 10.497 39.1787 10.497 41.184C10.19 41.184 9.88286 41.184 9.57581 41.184C9.57581 39.1787 9.57581 37.1733 9.57581 35.168Z" fill="url(#paint0_linear_431_1088)"/>
<path fill-rule="evenodd" clip-rule="evenodd" d="M12.097 35.168C12.097 35.488 12.097 35.808 12.097 36.128C11.8061 36.128 11.5152 36.128 11.2242 36.128C11.2242 35.808 11.2242 35.488 11.2242 35.168C11.5152 35.168 11.8061 35.168 12.097 35.168Z" fill="url(#paint1_linear_431_1088)"/>
<path fill-rule="evenodd" clip-rule="evenodd" d="M12.9213 35.168C13.2283 35.168 13.5354 35.168 13.8425 35.168C13.8344 36.2349 13.8425 37.3016 13.8667 38.368C14.2127 37.8473 14.5763 37.3459 14.9576 36.864C15.3132 36.8213 15.6688 36.8213 16.0243 36.864C15.6276 37.3983 15.2236 37.9209 14.8122 38.432C15.2707 39.3332 15.7233 40.2399 16.1697 41.152C15.797 41.2052 15.4253 41.1946 15.0546 41.12C14.7759 40.4906 14.4849 39.8719 14.1819 39.264C14.0695 39.3802 13.9645 39.5082 13.8667 39.648C13.8425 40.1596 13.8344 40.6716 13.8425 41.184C13.5354 41.184 13.2283 41.184 12.9213 41.184C12.9213 39.1787 12.9213 37.1733 12.9213 35.168Z" fill="url(#paint2_linear_431_1088)"/>
<path fill-rule="evenodd" clip-rule="evenodd" d="M28.2909 35.168C28.2748 35.8946 28.291 36.6199 28.3394 37.344C28.3689 37.3361 28.385 37.3148 28.3879 37.28C28.8492 36.6596 29.3826 36.5422 29.9879 36.928C30.5182 37.4264 30.7607 38.1091 30.7152 38.976C30.7605 40.0523 30.4211 40.8203 29.697 41.28C29.3092 41.3626 28.9375 41.2986 28.5818 41.088C28.491 40.9789 28.4102 40.8616 28.3394 40.736C28.3365 40.7012 28.3204 40.6799 28.2909 40.672C28.2434 40.8375 28.2273 41.0082 28.2425 41.184C27.9677 41.184 27.693 41.184 27.4182 41.184C27.4182 39.1787 27.4182 37.1733 27.4182 35.168C27.7091 35.168 28 35.168 28.2909 35.168Z" fill="url(#paint3_linear_431_1088)"/>
<path fill-rule="evenodd" clip-rule="evenodd" d="M28.2909 35.168C28.3233 35.872 28.3556 36.576 28.3879 37.28C28.385 37.3147 28.3689 37.3361 28.3394 37.344C28.291 36.6199 28.2748 35.8946 28.2909 35.168Z" fill="#939393"/>
<path fill-rule="evenodd" clip-rule="evenodd" d="M46.1818 35.168C46.1899 35.8936 46.1818 36.619 46.1576 37.344C46.1228 37.3092 46.0986 37.2665 46.0848 37.216C46.1172 36.5333 46.1495 35.8507 46.1818 35.168Z" fill="#646464"/>
<path fill-rule="evenodd" clip-rule="evenodd" d="M46.1818 35.168C46.4888 35.168 46.7959 35.168 47.103 35.168C47.103 37.1733 47.103 39.1787 47.103 41.184C46.8121 41.184 46.5212 41.184 46.2302 41.184C46.2382 41.012 46.2301 40.8413 46.206 40.672C45.843 41.247 45.3824 41.4497 44.8242 41.28C44.0439 40.8541 43.6722 40.0754 43.709 38.944C43.7112 37.8441 44.099 37.1081 44.8727 36.736C45.341 36.629 45.745 36.789 46.0848 37.216C46.0985 37.2665 46.1228 37.3092 46.1575 37.344C46.1818 36.619 46.1899 35.8936 46.1818 35.168Z" fill="url(#paint4_linear_431_1088)"/>
<path fill-rule="evenodd" clip-rule="evenodd" d="M12.097 35.168C12.1449 35.497 12.161 35.8383 12.1455 36.192C11.8292 36.2127 11.5222 36.1914 11.2242 36.128C11.5152 36.128 11.8061 36.128 12.097 36.128C12.097 35.808 12.097 35.488 12.097 35.168Z" fill="url(#paint5_linear_431_1088)"/>
<path fill-rule="evenodd" clip-rule="evenodd" d="M19.6121 38.56C19.6121 38.7947 19.6121 39.0293 19.6121 39.264C18.8279 39.2429 18.0521 39.2643 17.2849 39.328C17.2562 39.8692 17.434 40.2212 17.8182 40.384C18.2284 40.484 18.5517 40.3133 18.7879 39.872C19.046 39.8401 19.3045 39.8294 19.5636 39.84C19.3982 40.6662 18.9942 41.1462 18.3515 41.28C17.1008 41.3998 16.4382 40.6318 16.3636 38.976C16.4027 37.7937 16.8552 37.047 17.7212 36.736C18.7593 36.6252 19.3896 37.2332 19.6121 38.56Z" fill="url(#paint6_linear_431_1088)"/>
<path fill-rule="evenodd" clip-rule="evenodd" d="M23.0546 36.704C23.5988 36.6262 24.116 36.7435 24.6061 37.056C24.7664 37.2338 24.8715 37.4578 24.9213 37.728C24.9374 38.7947 24.9536 39.8613 24.9697 40.928C24.9847 41.009 25.009 41.0837 25.0425 41.152C24.7354 41.1947 24.4283 41.1947 24.1213 41.152C24.0849 41.041 24.0607 40.9237 24.0485 40.8C23.4633 41.3891 22.8411 41.4638 22.1819 41.024C21.8644 40.609 21.7594 40.1076 21.8667 39.52C22.0324 39.0422 22.3152 38.7756 22.7152 38.72C23.0371 38.6456 23.3604 38.5816 23.6849 38.528C23.9681 38.4527 24.0731 38.2287 24 37.856C23.8654 37.602 23.6796 37.4953 23.4425 37.536C23.0827 37.4997 22.8887 37.713 22.8607 38.176C22.5536 38.176 22.2465 38.176 21.9394 38.176C21.9488 37.6503 22.1265 37.2556 22.4728 36.992C22.6702 36.8877 22.8641 36.7917 23.0546 36.704Z" fill="url(#paint7_linear_431_1088)"/>
<path fill-rule="evenodd" clip-rule="evenodd" d="M32.5091 36.704C33.9476 36.5658 34.6506 37.4405 34.6182 39.328C34.4729 40.65 33.8911 41.3113 32.8727 41.312C32.0805 41.2692 31.5471 40.7572 31.2727 39.776C31.014 38.2609 31.4261 37.2369 32.5091 36.704Z" fill="url(#paint8_linear_431_1088)"/>
<path fill-rule="evenodd" clip-rule="evenodd" d="M36.194 36.704C36.846 36.5745 37.4035 36.8091 37.8667 37.408C37.9608 37.6274 38.0173 37.862 38.0364 38.112C37.7455 38.112 37.4546 38.112 37.1637 38.112C37.101 37.6558 36.8909 37.4638 36.5334 37.536C36.1756 37.4655 36.0221 37.6575 36.0728 38.112C36.1493 38.2106 36.2383 38.2853 36.3394 38.336C36.7675 38.4461 37.1877 38.5954 37.6001 38.784C38.1341 39.1708 38.2714 39.7361 38.0122 40.48C37.7659 40.9681 37.4185 41.2348 36.9698 41.28C36.3004 41.4568 35.7267 41.2328 35.2485 40.608C35.1276 40.353 35.071 40.0756 35.0788 39.776C35.3698 39.776 35.6607 39.776 35.9516 39.776C35.9253 40.1228 36.0385 40.3468 36.291 40.448C36.5377 40.5009 36.7801 40.4795 37.0182 40.384C37.2218 40.1848 37.2542 39.9501 37.1152 39.68C36.9252 39.5608 36.7313 39.4541 36.5334 39.36C36.1378 39.3139 35.766 39.1645 35.4182 38.912C34.9696 38.1421 35.0504 37.4808 35.6607 36.928C35.8416 36.8421 36.0194 36.7674 36.194 36.704Z" fill="url(#paint9_linear_431_1088)"/>
<path fill-rule="evenodd" clip-rule="evenodd" d="M39.6848 36.704C40.1645 36.6414 40.6171 36.7587 41.0424 37.056C41.3143 37.3183 41.4436 37.6703 41.4302 38.112C41.1555 38.112 40.8808 38.112 40.606 38.112C40.6036 37.9457 40.5551 37.807 40.4605 37.696C40.1768 37.5119 39.8859 37.4906 39.5878 37.632C39.4299 37.9371 39.4783 38.1718 39.7333 38.336C40.1763 38.4529 40.6127 38.6023 41.0424 38.784C41.5058 39.1074 41.6593 39.6088 41.503 40.288C41.3576 40.7785 41.0909 41.0878 40.703 41.216C40.0948 41.4099 39.513 41.3245 38.9575 40.96C38.6362 40.6771 38.4908 40.2824 38.5212 39.776C38.7959 39.776 39.0706 39.776 39.3454 39.776C39.3636 40.1124 39.4929 40.3364 39.7333 40.448C39.98 40.5009 40.2224 40.4795 40.4605 40.384C40.7402 40.0466 40.7079 39.7693 40.3636 39.552C40.0625 39.4153 39.7555 39.3087 39.4424 39.232C38.564 38.9293 38.3458 38.2573 38.7878 37.216C39.049 36.9132 39.348 36.7425 39.6848 36.704Z" fill="url(#paint10_linear_431_1088)"/>
<path fill-rule="evenodd" clip-rule="evenodd" d="M48.9455 36.704C50.2764 36.6902 50.9227 37.5649 50.8849 39.328C50.0931 39.328 49.3009 39.328 48.5091 39.328C48.6003 40.2527 48.9882 40.5834 49.6728 40.32C49.809 40.2148 49.922 40.0762 50.0122 39.904C50.2856 39.8296 50.56 39.8189 50.8364 39.872C50.4897 41.036 49.8434 41.5053 48.897 41.28C48.1683 41.0433 47.74 40.4353 47.6122 39.456C47.5207 38.0742 47.9652 37.1569 48.9455 36.704Z" fill="url(#paint11_linear_431_1088)"/>
<path fill-rule="evenodd" clip-rule="evenodd" d="M11.2242 36.832C11.5313 36.832 11.8384 36.832 12.1455 36.832C12.1455 38.2827 12.1455 39.7333 12.1455 41.184C11.8384 41.184 11.5313 41.184 11.2242 41.184C11.2242 39.7333 11.2242 38.2827 11.2242 36.832Z" fill="url(#paint12_linear_431_1088)"/>
<path fill-rule="evenodd" clip-rule="evenodd" d="M51.1273 36.832C51.4507 36.832 51.7736 36.832 52.097 36.832C52.3099 37.7927 52.528 38.7527 52.7516 39.712C53.0095 38.7865 53.2437 37.8478 53.4546 36.896C53.7605 36.8215 54.0674 36.8108 54.3758 36.864C54.0127 38.2603 53.649 39.6576 53.2849 41.056C53.12 41.1385 52.9421 41.1812 52.7516 41.184C52.561 41.1812 52.3831 41.1385 52.2182 41.056C51.8493 39.6489 51.4856 38.2409 51.1273 36.832Z" fill="url(#paint13_linear_431_1088)"/>
<path fill-rule="evenodd" clip-rule="evenodd" d="M18.6908 38.368C18.2412 38.4943 17.7725 38.537 17.2848 38.496C17.3387 37.9343 17.5811 37.6357 18.0121 37.6C18.3967 37.6184 18.623 37.8744 18.6908 38.368Z" fill="#CD98E7"/>
<path fill-rule="evenodd" clip-rule="evenodd" d="M28.8727 37.6C29.4107 37.5736 29.7258 37.9149 29.8181 38.624C29.8781 39.1243 29.8134 39.5936 29.6242 40.032C29.2196 40.5572 28.8317 40.5359 28.4606 39.968C28.2366 39.3263 28.2366 38.6863 28.4606 38.048C28.58 37.8572 28.7174 37.7079 28.8727 37.6Z" fill="#CD98E7"/>
<path fill-rule="evenodd" clip-rule="evenodd" d="M32.703 37.6C33.244 37.5348 33.5753 37.8548 33.6969 38.56C33.7435 38.9975 33.7112 39.4242 33.5999 39.84C33.2887 40.4527 32.8927 40.5701 32.4121 40.192C32.2485 39.9717 32.1596 39.705 32.1454 39.392C32.007 38.6045 32.1928 38.0072 32.703 37.6Z" fill="#CD98E7"/>
<path fill-rule="evenodd" clip-rule="evenodd" d="M45.2121 37.6C45.7239 37.5477 46.039 37.8463 46.1576 38.496C46.2242 39.0309 46.1758 39.5429 46.0121 40.032C45.6207 40.5397 45.2328 40.5397 44.8485 40.032C44.5426 39.2899 44.5588 38.5645 44.897 37.856C45.0092 37.7771 45.1142 37.6917 45.2121 37.6Z" fill="#CD98E7"/>
<path fill-rule="evenodd" clip-rule="evenodd" d="M49.9637 38.496C49.4948 38.496 49.0265 38.496 48.5576 38.496C48.5576 38.432 48.5576 38.368 48.5576 38.304C48.7826 37.6227 49.1545 37.4413 49.6728 37.76C49.8536 37.9491 49.9506 38.1944 49.9637 38.496Z" fill="#CD98E7"/>
<path fill-rule="evenodd" clip-rule="evenodd" d="M18.6909 38.368C18.7347 38.4134 18.7508 38.4774 18.7393 38.56C18.2457 38.5809 17.7609 38.5596 17.2848 38.496C17.7725 38.537 18.2412 38.4943 18.6909 38.368Z" fill="#666666"/>
<path fill-rule="evenodd" clip-rule="evenodd" d="M48.5576 38.304C48.5576 38.368 48.5576 38.432 48.5576 38.496C49.0265 38.496 49.4948 38.496 49.9637 38.496C49.4875 38.5596 49.0027 38.5809 48.5091 38.56C48.496 38.4577 48.5125 38.3724 48.5576 38.304Z" fill="#404040"/>
<path fill-rule="evenodd" clip-rule="evenodd" d="M23.9757 39.072C24.1416 40.1651 23.8023 40.6238 22.9576 40.448C22.6828 40.1814 22.6505 39.8721 22.8606 39.52C23.1114 39.3157 23.3861 39.2197 23.6848 39.232C23.7926 39.1958 23.8896 39.1424 23.9757 39.072Z" fill="#CD98E7"/>
<path fill-rule="evenodd" clip-rule="evenodd" d="M19.6121 38.56C19.6597 38.8031 19.6759 39.0591 19.6605 39.328C18.8686 39.328 18.0767 39.328 17.2848 39.328C18.0521 39.2643 18.8278 39.2429 19.6121 39.264C19.6121 39.0293 19.6121 38.7947 19.6121 38.56Z" fill="#C9C9C9"/>
<path fill-rule="evenodd" clip-rule="evenodd" d="M28.3394 40.736C28.2922 40.8927 28.2761 41.0634 28.2909 41.248C27.9908 41.2687 27.6999 41.2474 27.4182 41.184C27.693 41.184 27.9677 41.184 28.2425 41.184C28.2273 41.0082 28.2434 40.8375 28.2909 40.672C28.3204 40.6799 28.3365 40.7012 28.3394 40.736Z" fill="#737373"/>
<path fill-rule="evenodd" clip-rule="evenodd" d="M49.7212 42.976C49.4143 42.976 49.1069 42.976 48.8 42.976C48.8 43.0613 48.8 43.1467 48.8 43.232C48.7539 43.1412 48.7379 43.0346 48.7515 42.912C49.0836 42.8913 49.407 42.9126 49.7212 42.976Z" fill="#6C6C6C"/>
<path fill-rule="evenodd" clip-rule="evenodd" d="M14.6182 42.976C14.8129 42.9654 15.0068 42.9761 15.2001 43.008C15.3881 43.121 15.3881 43.2383 15.2001 43.36C14.7773 43.1087 14.5187 43.2794 14.4243 43.872C14.4168 44.1297 14.4977 44.3217 14.6667 44.448C14.8764 44.5036 15.0866 44.5142 15.297 44.48C15.3192 44.5065 15.3354 44.5385 15.3455 44.576C14.9181 44.9709 14.5545 44.8855 14.2546 44.32C14.0939 43.7292 14.2151 43.2812 14.6182 42.976Z" fill="#15001C"/>
<path fill-rule="evenodd" clip-rule="evenodd" d="M16.9939 42.976C17.4471 42.8431 17.7623 43.0564 17.9394 43.616C17.9949 44.4712 17.6959 44.8658 17.0424 44.8C16.6103 44.5413 16.4567 44.1039 16.5818 43.488C16.6823 43.2591 16.8197 43.0884 16.9939 42.976Z" fill="#15001C"/>
<path fill-rule="evenodd" clip-rule="evenodd" d="M19.1758 42.976C19.983 42.7729 20.3466 43.1996 20.2667 44.256C20.175 44.4837 20.0376 44.6437 19.8546 44.736C19.6289 44.7679 19.4026 44.7786 19.1758 44.768C19.1758 44.1707 19.1758 43.5733 19.1758 42.976Z" fill="#15001C"/>
<path fill-rule="evenodd" clip-rule="evenodd" d="M22.3273 42.976C22.0688 42.976 21.8101 42.976 21.5516 42.976C21.5516 43.5733 21.5516 44.1707 21.5516 44.768C21.5034 44.1609 21.4872 43.5423 21.5031 42.912C21.7871 42.8914 22.0619 42.9127 22.3273 42.976Z" fill="#8A8A8A"/>
<path fill-rule="evenodd" clip-rule="evenodd" d="M22.3273 42.976C22.3726 43.0443 22.3888 43.1297 22.3758 43.232C22.1657 43.232 21.9555 43.232 21.7455 43.232C21.7455 43.4027 21.7455 43.5733 21.7455 43.744C21.9071 43.744 22.0687 43.744 22.2303 43.744C22.2303 43.8293 22.2303 43.9147 22.2303 44C22.0687 44 21.9071 44 21.7455 44C21.7455 44.1707 21.7455 44.3413 21.7455 44.512C21.9555 44.512 22.1657 44.512 22.3758 44.512C22.3758 44.5973 22.3758 44.6827 22.3758 44.768C22.101 44.768 21.8263 44.768 21.5515 44.768C21.5515 44.1707 21.5515 43.5733 21.5515 42.976C21.8101 42.976 22.0687 42.976 22.3273 42.976Z" fill="#15001C"/>
<path fill-rule="evenodd" clip-rule="evenodd" d="M25.4303 42.976C25.6088 42.9654 25.7865 42.9761 25.9636 43.008C26.1611 43.1368 26.153 43.2328 25.9394 43.296C25.537 43.1247 25.2865 43.306 25.1879 43.84C25.2724 44.4782 25.539 44.6595 25.9879 44.384C26.1559 44.5259 26.1479 44.6433 25.9636 44.736C25.2651 44.9407 24.9338 44.5674 24.9697 43.616C25.0677 43.3267 25.2213 43.1134 25.4303 42.976Z" fill="#15001C"/>
<path fill-rule="evenodd" clip-rule="evenodd" d="M27.3212 42.976C27.5641 42.9654 27.8065 42.9761 28.0484 43.008C28.3698 43.3838 28.3698 43.7571 28.0484 44.128C28.1454 44.32 28.2424 44.512 28.3393 44.704C28.2585 44.7893 28.1777 44.7893 28.0969 44.704C28.0221 44.5385 27.9413 44.3785 27.8545 44.224C27.7588 44.1923 27.6619 44.1816 27.5636 44.192C27.5636 44.384 27.5636 44.576 27.5636 44.768C27.4828 44.768 27.402 44.768 27.3212 44.768C27.3212 44.1707 27.3212 43.5733 27.3212 42.976Z" fill="#15001C"/>
<path fill-rule="evenodd" clip-rule="evenodd" d="M30.3758 42.976C30.1172 42.976 29.8586 42.976 29.6 42.976C29.6 43.5733 29.6 44.1707 29.6 44.768C29.5518 44.1609 29.5357 43.5423 29.5515 42.912C29.8356 42.8914 30.1103 42.9127 30.3758 42.976Z" fill="#8A8A8A"/>
<path fill-rule="evenodd" clip-rule="evenodd" d="M30.3757 42.976C30.421 43.0443 30.4372 43.1297 30.4242 43.232C30.2141 43.232 30.004 43.232 29.7939 43.232C29.7939 43.4027 29.7939 43.5733 29.7939 43.744C29.9555 43.744 30.1172 43.744 30.2788 43.744C30.2788 43.8293 30.2788 43.9147 30.2788 44C30.1172 44 29.9555 44 29.7939 44C29.7939 44.1707 29.7939 44.3413 29.7939 44.512C30.004 44.512 30.2141 44.512 30.4242 44.512C30.4242 44.5973 30.4242 44.6827 30.4242 44.768C30.1495 44.768 29.8747 44.768 29.6 44.768C29.6 44.1707 29.6 43.5733 29.6 42.976C29.8585 42.976 30.1172 42.976 30.3757 42.976Z" fill="#15001C"/>
<path fill-rule="evenodd" clip-rule="evenodd" d="M32.1212 42.976C32.2021 42.976 32.2828 42.976 32.3637 42.976C32.5271 43.5572 32.7049 44.1332 32.897 44.704C32.6935 44.7934 32.5965 44.6867 32.6061 44.384C32.3615 44.3631 32.1191 44.3844 31.8788 44.448C31.83 44.7074 31.7169 44.7927 31.5394 44.704C31.7208 44.1188 31.9147 43.5428 32.1212 42.976Z" fill="#15001C"/>
<path fill-rule="evenodd" clip-rule="evenodd" d="M34.0605 42.976C34.3838 42.976 34.707 42.976 35.0302 42.976C35.0302 43.0613 35.0302 43.1467 35.0302 43.232C34.9009 43.232 34.7717 43.232 34.6424 43.232C34.6424 43.744 34.6424 44.256 34.6424 44.768C34.5777 44.768 34.5131 44.768 34.4484 44.768C34.4484 44.256 34.4484 43.744 34.4484 43.232C34.3191 43.232 34.1899 43.232 34.0605 43.232C34.0605 43.1467 34.0605 43.0613 34.0605 42.976Z" fill="#15001C"/>
<path fill-rule="evenodd" clip-rule="evenodd" d="M36.2424 42.976C36.5172 42.976 36.7919 42.976 37.0667 42.976C37.0667 43.0613 37.0667 43.1467 37.0667 43.232C36.8566 43.232 36.6465 43.232 36.4364 43.232C36.4364 43.4027 36.4364 43.5733 36.4364 43.744C36.598 43.744 36.7596 43.744 36.9212 43.744C36.9212 43.8293 36.9212 43.9147 36.9212 44C36.7596 44 36.598 44 36.4364 44C36.4364 44.1707 36.4364 44.3413 36.4364 44.512C36.6465 44.512 36.8566 44.512 37.0667 44.512C37.0667 44.5973 37.0667 44.6827 37.0667 44.768C36.7919 44.768 36.5172 44.768 36.2424 44.768C36.2424 44.1707 36.2424 43.5733 36.2424 42.976Z" fill="#15001C"/>
<path fill-rule="evenodd" clip-rule="evenodd" d="M39.6848 42.976C39.9117 42.9654 40.1379 42.9761 40.3636 43.008C40.6021 43.1834 40.691 43.4501 40.6303 43.808C40.5831 43.945 40.5104 44.0517 40.4121 44.128C40.5091 44.32 40.606 44.512 40.703 44.704C40.6222 44.7893 40.5414 44.7893 40.4606 44.704C40.3858 44.5385 40.305 44.3785 40.2181 44.224C40.1225 44.1923 40.0255 44.1816 39.9272 44.192C39.9272 44.384 39.9272 44.576 39.9272 44.768C39.8464 44.768 39.7656 44.768 39.6848 44.768C39.6848 44.1707 39.6848 43.5733 39.6848 42.976Z" fill="#15001C"/>
<path fill-rule="evenodd" clip-rule="evenodd" d="M41.9152 42.976C42.1899 42.976 42.4646 42.976 42.7394 42.976C42.7394 43.0613 42.7394 43.1467 42.7394 43.232C42.5455 43.232 42.3515 43.232 42.1576 43.232C42.1576 43.4027 42.1576 43.5733 42.1576 43.744C42.3192 43.744 42.4808 43.744 42.6424 43.744C42.6424 43.8293 42.6424 43.9147 42.6424 44C42.4808 44 42.3192 44 42.1576 44C42.1576 44.1707 42.1576 44.3413 42.1576 44.512C42.3677 44.512 42.5778 44.512 42.7879 44.512C42.7879 44.5973 42.7879 44.6827 42.7879 44.768C42.497 44.768 42.2061 44.768 41.9152 44.768C41.9152 44.1707 41.9152 43.5733 41.9152 42.976Z" fill="#15001C"/>
<path fill-rule="evenodd" clip-rule="evenodd" d="M44.9213 44.448C44.8093 44.4055 44.688 44.3842 44.5576 44.384C44.4156 44.3856 44.2944 44.4282 44.194 44.512C44.1643 44.7166 44.0673 44.802 43.9031 44.768C44.0613 44.1793 44.2472 43.6033 44.4607 43.04C44.5415 42.9547 44.6223 42.9547 44.7031 43.04C44.9023 43.5871 45.0881 44.1418 45.2607 44.704C45.2014 44.7753 45.1367 44.786 45.0667 44.736C45.0231 44.6303 44.9746 44.5343 44.9213 44.448Z" fill="#15001C"/>
<path fill-rule="evenodd" clip-rule="evenodd" d="M46.9091 42.976C47.0877 42.9654 47.2654 42.9761 47.4425 43.008C47.6321 43.1176 47.6321 43.235 47.4425 43.36C47.0328 43.1016 46.7743 43.2616 46.6667 43.84C46.7512 44.4781 47.0179 44.6595 47.4667 44.384C47.6348 44.5259 47.6268 44.6433 47.4425 44.736C46.7432 44.9404 46.4119 44.567 46.4485 43.616C46.5466 43.3267 46.7001 43.1134 46.9091 42.976Z" fill="#15001C"/>
<path fill-rule="evenodd" clip-rule="evenodd" d="M49.7213 42.976C49.7213 43.0613 49.7213 43.1467 49.7213 43.232C49.6083 43.232 49.4948 43.232 49.3819 43.232C49.3339 43.7322 49.3174 44.2442 49.3334 44.768C49.2689 44.768 49.2039 44.768 49.1394 44.768C49.1394 44.256 49.1394 43.744 49.1394 43.232C49.0265 43.232 48.913 43.232 48.8 43.232C48.8 43.1467 48.8 43.0613 48.8 42.976C49.107 42.976 49.4144 42.976 49.7213 42.976Z" fill="#15001C"/>
<path fill-rule="evenodd" clip-rule="evenodd" d="M17.0424 43.232C17.5312 43.1866 17.7494 43.4852 17.6969 44.128C17.5362 44.4975 17.3018 44.6042 16.9939 44.448C16.6588 44.0154 16.675 43.6101 17.0424 43.232Z" fill="#CD98E7"/>
<path fill-rule="evenodd" clip-rule="evenodd" d="M19.3698 43.232C19.7422 43.1468 19.9846 43.3388 20.097 43.808C20.0418 44.3679 19.7994 44.6026 19.3698 44.512C19.3698 44.0853 19.3698 43.6587 19.3698 43.232Z" fill="#CD98E7"/>
<path fill-rule="evenodd" clip-rule="evenodd" d="M27.5636 43.232C27.6939 43.2215 27.8232 43.2322 27.9515 43.264C28.0808 43.456 28.0808 43.648 27.9515 43.84C27.8232 43.8718 27.6939 43.8825 27.5636 43.872C27.5636 43.6587 27.5636 43.4453 27.5636 43.232Z" fill="#CD98E7"/>
<path fill-rule="evenodd" clip-rule="evenodd" d="M39.9272 43.232C40.0575 43.2215 40.1868 43.2322 40.3151 43.264C40.4444 43.456 40.4444 43.648 40.3151 43.84C40.1868 43.8718 40.0575 43.8825 39.9272 43.872C39.9272 43.6587 39.9272 43.4453 39.9272 43.232Z" fill="#CD98E7"/>
<path fill-rule="evenodd" clip-rule="evenodd" d="M49.3818 43.232C49.3818 43.7653 49.3818 44.2987 49.3818 44.832C49.2892 44.8502 49.2083 44.8289 49.1394 44.768C49.2039 44.768 49.2689 44.768 49.3333 44.768C49.3173 44.2442 49.3338 43.7322 49.3818 43.232Z" fill="#15001C"/>
<path fill-rule="evenodd" clip-rule="evenodd" d="M32.1696 43.36C32.2121 43.3516 32.2445 43.3729 32.2666 43.424C32.3312 43.6373 32.3959 43.8507 32.4606 44.064C32.3013 44.1381 32.1397 44.1487 31.9757 44.096C32.0593 43.8557 32.124 43.6104 32.1696 43.36Z" fill="#CD98E7"/>
<path fill-rule="evenodd" clip-rule="evenodd" d="M44.5333 43.36C44.6649 43.5573 44.7619 43.792 44.8242 44.064C44.665 44.138 44.5033 44.1487 44.3394 44.096C44.4388 43.8656 44.5035 43.6203 44.5333 43.36Z" fill="#CD98E7"/>
<path fill-rule="evenodd" clip-rule="evenodd" d="M44.9212 44.448C44.6742 44.4301 44.4318 44.4515 44.194 44.512C44.2944 44.4282 44.4156 44.3856 44.5576 44.384C44.688 44.3842 44.8092 44.4055 44.9212 44.448Z" fill="#CD98E7"/>
<path fill-rule="evenodd" clip-rule="evenodd" d="M23.5393 44.512C23.6202 44.512 23.7009 44.512 23.7818 44.512C23.7818 44.5973 23.7818 44.6827 23.7818 44.768C23.6145 44.8156 23.5337 44.7302 23.5393 44.512Z" fill="#15001C"/>
<path fill-rule="evenodd" clip-rule="evenodd" d="M38.2788 44.512C38.3434 44.512 38.4081 44.512 38.4727 44.512C38.4727 44.5973 38.4727 44.6827 38.4727 44.768C38.4081 44.768 38.3434 44.768 38.2788 44.768C38.2788 44.6827 38.2788 44.5973 38.2788 44.512Z" fill="#15001C"/>
</g>
<defs>
<linearGradient id="paint0_linear_431_1088" x1="10.0364" y1="35.168" x2="10.0364" y2="41.184" gradientUnits="userSpaceOnUse">
<stop offset="0.519297"/>
<stop offset="0.961611" stop-color="#062994" stop-opacity="0.58"/>
</linearGradient>
<linearGradient id="paint1_linear_431_1088" x1="11.6606" y1="35.168" x2="11.6606" y2="36.128" gradientUnits="userSpaceOnUse">
<stop offset="0.519297"/>
<stop offset="0.961611" stop-color="#062994" stop-opacity="0.58"/>
</linearGradient>
<linearGradient id="paint2_linear_431_1088" x1="14.5455" y1="35.168" x2="14.5455" y2="41.1852" gradientUnits="userSpaceOnUse">
<stop offset="0.519297"/>
<stop offset="0.961611" stop-color="#062994" stop-opacity="0.58"/>
</linearGradient>
<linearGradient id="paint3_linear_431_1088" x1="29.0694" y1="35.168" x2="29.0694" y2="41.3149" gradientUnits="userSpaceOnUse">
<stop offset="0.519297"/>
<stop offset="0.961611" stop-color="#062994" stop-opacity="0.58"/>
</linearGradient>
<linearGradient id="paint4_linear_431_1088" x1="45.4048" y1="35.168" x2="45.4048" y2="41.338" gradientUnits="userSpaceOnUse">
<stop offset="0.519297"/>
<stop offset="0.961611" stop-color="#062994" stop-opacity="0.58"/>
</linearGradient>
<linearGradient id="paint5_linear_431_1088" x1="11.6877" y1="35.168" x2="11.6877" y2="36.1996" gradientUnits="userSpaceOnUse">
<stop offset="0.519297"/>
<stop offset="0.961611" stop-color="#062994" stop-opacity="0.58"/>
</linearGradient>
<linearGradient id="paint6_linear_431_1088" x1="17.9879" y1="36.7232" x2="17.9879" y2="41.2921" gradientUnits="userSpaceOnUse">
<stop offset="0.519297"/>
<stop offset="0.961611" stop-color="#062994" stop-opacity="0.58"/>
</linearGradient>
<linearGradient id="paint7_linear_431_1088" x1="23.4343" y1="36.6807" x2="23.4343" y2="41.306" gradientUnits="userSpaceOnUse">
<stop offset="0.519297"/>
<stop offset="0.961611" stop-color="#062994" stop-opacity="0.58"/>
</linearGradient>
<linearGradient id="paint8_linear_431_1088" x1="32.9086" y1="36.6899" x2="32.9086" y2="41.312" gradientUnits="userSpaceOnUse">
<stop offset="0.519297"/>
<stop offset="0.961611" stop-color="#062994" stop-opacity="0.58"/>
</linearGradient>
<linearGradient id="paint9_linear_431_1088" x1="36.6087" y1="36.6695" x2="36.6087" y2="41.3385" gradientUnits="userSpaceOnUse">
<stop offset="0.519297"/>
<stop offset="0.961611" stop-color="#062994" stop-opacity="0.58"/>
</linearGradient>
<linearGradient id="paint10_linear_431_1088" x1="40.0397" y1="36.6877" x2="40.0397" y2="41.317" gradientUnits="userSpaceOnUse">
<stop offset="0.519297"/>
<stop offset="0.961611" stop-color="#062994" stop-opacity="0.58"/>
</linearGradient>
<linearGradient id="paint11_linear_431_1088" x1="49.2435" y1="36.7038" x2="49.2435" y2="41.3348" gradientUnits="userSpaceOnUse">
<stop offset="0.519297"/>
<stop offset="0.961611" stop-color="#062994" stop-opacity="0.58"/>
</linearGradient>
<linearGradient id="paint12_linear_431_1088" x1="11.6848" y1="36.832" x2="11.6848" y2="41.184" gradientUnits="userSpaceOnUse">
<stop offset="0.519297"/>
<stop offset="0.961611" stop-color="#062994" stop-opacity="0.58"/>
</linearGradient>
<linearGradient id="paint13_linear_431_1088" x1="52.7516" y1="36.8308" x2="52.7516" y2="41.184" gradientUnits="userSpaceOnUse">
<stop offset="0.519297"/>
<stop offset="0.961611" stop-color="#062994" stop-opacity="0.58"/>
</linearGradient>
<clipPath id="clip0_431_1088">
<rect width="64" height="64" rx="8" fill="white"/>
</clipPath>
</defs>
</svg>
