<svg width="48" height="49" viewBox="0 0 48 49" fill="none" xmlns="http://www.w3.org/2000/svg">
<path d="M16.0352 2.53066C14.5521 2.41757 13.0801 2.6695 11.7891 3.41737C10.0677 4.41454 8.94532 6.12745 8.36719 8.058C7.78905 9.98855 7.68724 12.1892 7.93359 14.5853C7.96189 14.8606 8.00914 15.1486 8.04688 15.4291C7.90605 15.4901 7.7552 15.546 7.61719 15.6088C5.45214 16.5929 3.62642 17.7831 2.26562 19.2455C0.904832 20.7079 0 22.5242 0 24.4994C0 26.4746 0.904832 28.2909 2.26562 29.7533C3.62642 31.2157 5.45214 32.4059 7.61719 33.39C7.7552 33.4528 7.90605 33.5087 8.04688 33.5697C8.00913 33.8502 7.96191 34.1382 7.93359 34.4135C7.68712 36.8096 7.78915 39.0102 8.36719 40.9408C8.94522 42.8714 10.0638 44.5842 11.7852 45.5814C13.5065 46.5787 15.5494 46.6965 17.5117 46.2377C19.4741 45.7789 21.4345 44.7762 23.3906 43.3705C23.5925 43.2254 23.7943 43.0555 23.9961 42.9017C24.1993 43.0567 24.4022 43.2244 24.6055 43.3705C26.5615 44.7763 28.5221 45.7827 30.4844 46.2416C32.4467 46.7005 34.4896 46.5786 36.2109 45.5814C37.9323 44.5843 39.0547 42.8714 39.6328 40.9408C40.2109 39.0103 40.3128 36.8096 40.0664 34.4135C40.038 34.1375 39.9871 33.851 39.9492 33.5697C40.0912 33.5082 40.2437 33.4532 40.3828 33.39C42.5479 32.4059 44.3736 31.2157 45.7344 29.7533C47.0952 28.2909 48 26.4746 48 24.4994C48 22.5242 47.0952 20.7079 45.7344 19.2455C44.3736 17.7831 42.5479 16.5929 40.3828 15.6088C40.2448 15.546 40.094 15.4901 39.9531 15.4291C39.9909 15.1486 40.0381 14.8606 40.0664 14.5853C40.3129 12.1892 40.2108 9.98858 39.6328 8.058C39.0548 6.12742 37.9362 4.41463 36.2148 3.41737C34.4935 2.42012 32.4506 2.30232 30.4883 2.76112C28.5259 3.21993 26.5655 4.22265 24.6094 5.62831C24.4067 5.77397 24.2026 5.94262 24 6.09706C23.7979 5.94299 23.5967 5.77363 23.3945 5.62831C21.4385 4.22254 19.4779 3.22003 17.5156 2.76112C17.025 2.6464 16.5295 2.56835 16.0352 2.53066ZM14.9844 6.51112C15.4448 6.46794 15.9745 6.50901 16.6016 6.65566C17.8212 6.94089 19.3291 7.66082 20.9258 8.78847C19.6699 10.0304 18.4385 11.419 17.2539 12.9564C15.3627 13.2196 13.5777 13.6016 11.9062 14.0736C11.7139 12.1016 11.8401 10.4187 12.2031 9.20644C12.5726 7.97257 13.1115 7.27307 13.793 6.87831C14.1337 6.68093 14.524 6.55431 14.9844 6.51112ZM32.2695 6.51112C33.0763 6.44025 33.6959 6.58222 34.207 6.87831C34.8885 7.27311 35.4313 7.97256 35.8008 9.20644C36.1638 10.4187 36.2901 12.1016 36.0977 14.0736C34.4251 13.6011 32.6387 13.2197 30.7461 12.9564C29.5619 11.4195 28.3335 10.0301 27.0781 8.78847C28.6738 7.66203 30.1795 6.94066 31.3984 6.65566C31.712 6.58235 32.0006 6.53475 32.2695 6.51112ZM24 11.4057C24.3572 11.7523 24.7131 12.1435 25.0703 12.5228C24.7129 12.5154 24.3614 12.4994 24 12.4994C23.6386 12.4994 23.2871 12.5154 22.9297 12.5228C23.2869 12.1436 23.6428 11.7523 24 11.4057ZM24 16.4994C25.576 16.4994 27.0975 16.5957 28.5703 16.7455C29.4017 17.9102 30.208 19.151 30.9688 20.4642C31.7507 21.8142 32.4343 23.1633 33.043 24.4994C32.4342 25.8354 31.7508 27.1886 30.9688 28.5385C30.208 29.8517 29.4018 31.0886 28.5703 32.2533C27.0975 32.4032 25.576 32.4994 24 32.4994C22.424 32.4994 20.9025 32.4032 19.4297 32.2533C18.5983 31.0886 17.792 29.8517 17.0312 28.5385C16.2493 27.1885 15.5657 25.8355 14.957 24.4994C15.5658 23.1634 16.2492 21.8102 17.0312 20.4603C17.792 19.1472 18.5982 17.9102 19.4297 16.7455C20.9025 16.5957 22.424 16.4994 24 16.4994ZM14.0352 17.6908C13.8807 17.9473 13.7217 18.1951 13.5703 18.4564C13.3899 18.7678 13.2269 19.0785 13.0547 19.39C12.9179 18.9354 12.7695 18.4756 12.6562 18.0346C13.0918 17.907 13.575 17.8044 14.0352 17.6908ZM33.9648 17.6947C34.4247 17.8082 34.9085 17.9071 35.3438 18.0346C35.2305 18.4756 35.0821 18.9355 34.9453 19.39C34.7733 19.0789 34.6098 18.7674 34.4297 18.4564C34.2785 18.1954 34.119 17.9508 33.9648 17.6947ZM24 18.4994C20.692 18.4994 18 21.1914 18 24.4994C18 27.8074 20.692 30.4994 24 30.4994C27.308 30.4994 30 27.8074 30 24.4994C30 21.1914 27.308 18.4994 24 18.4994ZM8.86719 19.4486C9.30697 21.0893 9.87342 22.7763 10.582 24.4955C9.87233 26.2162 9.30372 27.9042 8.86328 29.5463C7.25302 28.7671 5.98851 27.8873 5.19141 27.0307C4.32568 26.1003 4 25.2856 4 24.4994C4 23.7132 4.32568 22.8985 5.19141 21.9682C5.9893 21.1107 7.2546 20.2283 8.86719 19.4486ZM39.1367 19.4525C40.747 20.2317 42.0115 21.1115 42.8086 21.9682C43.6743 22.8985 44 23.7132 44 24.4994C44 25.2856 43.6743 26.1003 42.8086 27.0307C42.011 27.8878 40.7446 28.7667 39.1328 29.5463C38.6928 27.906 38.1266 26.2181 37.418 24.4994C38.1271 22.7798 38.6966 21.0936 39.1367 19.4525ZM13.0547 29.6088C13.2269 29.9204 13.3899 30.231 13.5703 30.5424C13.7212 30.8028 13.8813 31.0485 14.0352 31.3041C13.5753 31.1906 13.0915 31.0917 12.6562 30.9642C12.7695 30.5232 12.9178 30.0634 13.0547 29.6088ZM34.9453 29.6088C35.082 30.0629 35.2306 30.5236 35.3438 30.9642C34.9082 31.0918 34.425 31.1944 33.9648 31.308C34.1193 31.0515 34.2783 30.8037 34.4297 30.5424C34.6101 30.231 34.7731 29.9204 34.9453 29.6088ZM11.9023 34.9252C13.5749 35.3977 15.3613 35.7791 17.2539 36.0424C18.4378 37.5791 19.6667 38.9689 20.9219 40.2103C19.3262 41.3368 17.8205 42.0582 16.6016 42.3432C15.3474 42.6364 14.4744 42.5153 13.793 42.1205C13.1115 41.7257 12.5687 41.0263 12.1992 39.7924C11.8362 38.5801 11.7099 36.8972 11.9023 34.9252ZM36.0977 34.9252C36.29 36.8972 36.1638 38.584 35.8008 39.7963C35.4313 41.0301 34.8885 41.7257 34.207 42.1205C33.5256 42.5153 32.6526 42.6365 31.3984 42.3432C30.1787 42.0579 28.6709 41.3381 27.0742 40.2103C28.3301 38.9685 29.5615 37.5798 30.7461 36.0424C32.6387 35.7791 34.4251 35.3977 36.0977 34.9252ZM22.9297 36.476C23.2871 36.4834 23.6386 36.4994 24 36.4994C24.3614 36.4994 24.7129 36.4834 25.0703 36.476C24.7131 36.8553 24.3572 37.2465 24 37.5932C23.6428 37.2465 23.2869 36.8553 22.9297 36.476Z" fill="#6174C1"/>
</svg>
