<svg width="49" height="48" viewBox="0 0 49 48" fill="none" xmlns="http://www.w3.org/2000/svg">
<g clip-path="url(#clip0_347_1304)">
<path d="M16.5352 2.03114C15.0521 1.91806 13.5801 2.16999 12.2891 2.91786C10.5677 3.91503 9.44532 5.62794 8.86719 7.55849C8.28905 9.48904 8.18724 11.6897 8.43359 14.0858C8.46189 14.3611 8.50914 14.6491 8.54688 14.9296C8.40605 14.9906 8.2552 15.0465 8.11719 15.1093C5.95214 16.0934 4.12642 17.2836 2.76562 18.746C1.40483 20.2084 0.5 22.0247 0.5 23.9999C0.5 25.9751 1.40483 27.7914 2.76562 29.2538C4.12642 30.7162 5.95214 31.9064 8.11719 32.8905C8.2552 32.9533 8.40605 33.0092 8.54688 33.0702C8.50913 33.3507 8.46191 33.6387 8.43359 33.914C8.18712 36.3101 8.28915 38.5107 8.86719 40.4413C9.44522 42.3719 10.5638 44.0847 12.2852 45.0819C14.0065 46.0792 16.0494 46.197 18.0117 45.7382C19.9741 45.2794 21.9345 44.2766 23.8906 42.871C24.0925 42.7259 24.2943 42.556 24.4961 42.4022C24.6993 42.5572 24.9022 42.7249 25.1055 42.871C27.0615 44.2768 29.0221 45.2832 30.9844 45.7421C32.9467 46.201 34.9896 46.0791 36.7109 45.0819C38.4323 44.0848 39.5547 42.3718 40.1328 40.4413C40.7109 38.5107 40.8128 36.3101 40.5664 33.914C40.538 33.638 40.4871 33.3514 40.4492 33.0702C40.5912 33.0087 40.7437 32.9537 40.8828 32.8905C43.0479 31.9064 44.8736 30.7162 46.2344 29.2538C47.5952 27.7914 48.5 25.9751 48.5 23.9999C48.5 22.0247 47.5952 20.2084 46.2344 18.746C44.8736 17.2836 43.0479 16.0934 40.8828 15.1093C40.7448 15.0465 40.594 14.9906 40.4531 14.9296C40.4909 14.6491 40.5381 14.3611 40.5664 14.0858C40.8129 11.6897 40.7108 9.48907 40.1328 7.55849C39.5548 5.62791 38.4362 3.91512 36.7148 2.91786C34.9935 1.92061 32.9506 1.80281 30.9883 2.26161C29.0259 2.72042 27.0655 3.72314 25.1094 5.1288C24.9067 5.27446 24.7026 5.44311 24.5 5.59755C24.2979 5.44348 24.0967 5.27412 23.8945 5.1288C21.9385 3.72303 19.9779 2.72052 18.0156 2.26161C17.525 2.14688 17.0295 2.06884 16.5352 2.03114ZM15.4844 6.01161C15.9448 5.96843 16.4745 6.00949 17.1016 6.15614C18.3212 6.44138 19.8291 7.16131 21.4258 8.28896C20.1699 9.53084 18.9385 10.9195 17.7539 12.4569C15.8627 12.72 14.0777 13.102 12.4062 13.5741C12.2139 11.6021 12.3401 9.91922 12.7031 8.70692C13.0726 7.47306 13.6115 6.77356 14.293 6.3788C14.6337 6.18142 15.024 6.0548 15.4844 6.01161ZM32.7695 6.01161C33.5763 5.94074 34.1959 6.08271 34.707 6.3788C35.3885 6.77359 35.9313 7.47304 36.3008 8.70692C36.6638 9.91923 36.7901 11.6021 36.5977 13.5741C34.9251 13.1016 33.1387 12.7202 31.2461 12.4569C30.0619 10.92 28.8335 9.53058 27.5781 8.28896C29.1738 7.16252 30.6795 6.44115 31.8984 6.15614C32.212 6.08284 32.5006 6.03524 32.7695 6.01161ZM24.5 10.9061C24.8572 11.2528 25.2131 11.644 25.5703 12.0233C25.2129 12.0159 24.8614 11.9999 24.5 11.9999C24.1386 11.9999 23.7871 12.0159 23.4297 12.0233C23.7869 11.644 24.1428 11.2528 24.5 10.9061ZM24.5 15.9999C26.076 15.9999 27.5975 16.0961 29.0703 16.246C29.9017 17.4107 30.708 18.6515 31.4688 19.9647C32.2507 21.3147 32.9343 22.6638 33.543 23.9999C32.9342 25.3359 32.2508 26.6891 31.4688 28.039C30.708 29.3521 29.9018 30.5891 29.0703 31.7538C27.5975 31.9036 26.076 31.9999 24.5 31.9999C22.924 31.9999 21.4025 31.9036 19.9297 31.7538C19.0983 30.5891 18.292 29.3522 17.5312 28.039C16.7493 26.689 16.0657 25.336 15.457 23.9999C16.0658 22.6639 16.7492 21.3107 17.5312 19.9608C18.292 18.6476 19.0982 17.4107 19.9297 16.246C21.4025 16.0961 22.924 15.9999 24.5 15.9999ZM14.5352 17.1913C14.3807 17.4478 14.2217 17.6956 14.0703 17.9569C13.8899 18.2683 13.7269 18.5789 13.5547 18.8905C13.4179 18.4359 13.2695 17.9761 13.1562 17.535C13.5918 17.4075 14.075 17.3049 14.5352 17.1913ZM34.4648 17.1952C34.9247 17.3087 35.4085 17.4076 35.8438 17.535C35.7305 17.9761 35.5821 18.4359 35.4453 18.8905C35.2733 18.5794 35.1098 18.2679 34.9297 17.9569C34.7785 17.6959 34.619 17.4513 34.4648 17.1952ZM24.5 17.9999C21.192 17.9999 18.5 20.6919 18.5 23.9999C18.5 27.3079 21.192 29.9999 24.5 29.9999C27.808 29.9999 30.5 27.3079 30.5 23.9999C30.5 20.6919 27.808 17.9999 24.5 17.9999ZM9.36719 18.9491C9.80697 20.5898 10.3734 22.2768 11.082 23.996C10.3723 25.7167 9.80372 27.4047 9.36328 29.0468C7.75302 28.2676 6.48851 27.3878 5.69141 26.5311C4.82568 25.6008 4.5 24.7861 4.5 23.9999C4.5 23.2137 4.82568 22.399 5.69141 21.4686C6.4893 20.6112 7.7546 19.7288 9.36719 18.9491ZM39.6367 18.953C41.247 19.7322 42.5115 20.612 43.3086 21.4686C44.1743 22.399 44.5 23.2137 44.5 23.9999C44.5 24.7861 44.1743 25.6008 43.3086 26.5311C42.511 27.3883 41.2446 28.2672 39.6328 29.0468C39.1928 27.4065 38.6266 25.7186 37.918 23.9999C38.6271 22.2803 39.1966 20.594 39.6367 18.953ZM13.5547 29.1093C13.7269 29.4209 13.8899 29.7315 14.0703 30.0429C14.2212 30.3033 14.3813 30.549 14.5352 30.8046C14.0753 30.6911 13.5915 30.5922 13.1562 30.4647C13.2695 30.0237 13.4178 29.5638 13.5547 29.1093ZM35.4453 29.1093C35.582 29.5634 35.7306 30.0241 35.8438 30.4647C35.4082 30.5923 34.925 30.6949 34.4648 30.8085C34.6193 30.552 34.7783 30.3042 34.9297 30.0429C35.1101 29.7315 35.2731 29.4208 35.4453 29.1093ZM12.4023 34.4257C14.0749 34.8982 15.8613 35.2796 17.7539 35.5429C18.9378 37.0796 20.1667 38.4694 21.4219 39.7108C19.8262 40.8373 18.3205 41.5586 17.1016 41.8436C15.8474 42.1369 14.9744 42.0158 14.293 41.621C13.6115 41.2262 13.0687 40.5267 12.6992 39.2929C12.3362 38.0806 12.2099 36.3977 12.4023 34.4257ZM36.5977 34.4257C36.79 36.3977 36.6638 38.0845 36.3008 39.2968C35.9313 40.5306 35.3885 41.2262 34.707 41.621C34.0256 42.0157 33.1526 42.1369 31.8984 41.8436C30.6787 41.5584 29.1709 40.8386 27.5742 39.7108C28.8301 38.4689 30.0615 37.0803 31.2461 35.5429C33.1387 35.2796 34.9251 34.8982 36.5977 34.4257ZM23.4297 35.9765C23.7871 35.9839 24.1386 35.9999 24.5 35.9999C24.8614 35.9999 25.2129 35.9839 25.5703 35.9765C25.2131 36.3557 24.8572 36.747 24.5 37.0936C24.1428 36.7469 23.7869 36.3558 23.4297 35.9765Z" fill="#CD98E7"/>
</g>
<defs>
<clipPath id="clip0_347_1304">
<rect width="48" height="48" fill="white" transform="translate(0.5)"/>
</clipPath>
</defs>
</svg>
